# File created by Blade
# Date/Time:  Fri Jan 16 19:41:12 2015
# Frame Rate: 120.000 fps
#------------------------------------------------------
:FULLY-SPECIFIED
:DEGREES
328
root 18.549656 35.483936 -21.332132 14.240593 9.708870 0.625820
Spine -28.164570 -10.184708 -4.155564
Head 16.912292 0.209462 11.534376
LeftShoulder 7.735966 -9.008204 -8.744118
LeftArm -106.932699 58.160755 -209.123594
LeftForeArm 44.537781 -0.000000 127.350609
LeftHand 16.061274 -0.000000 14.497703
LeftHandThumb1 -26.253704 0.000000 33.147579
RightShoulder -27.750299 21.775734 -41.845635
RightArm 152.778412 54.593612 121.662435
RightForeArm 15.891389 -0.000000 154.758151
RightHand 6.696567 -0.000000 -21.729759
RightHandThumb1 -24.326973 -0.000000 -32.862282
LeftUpLeg -4.041243 0.970976 0.901432
LeftLeg -8.058249 -0.000000 0.000000
LeftFoot -19.044228 25.433850 -15.380488
LeftToeBase 23.735973 -0.000000 -0.000000
RightUpLeg -2.718673 -14.001973 -0.442546
RightLeg -4.548106 -0.000000 0.000000
RightFoot -24.007823 -24.792053 20.566867
RightToeBase 22.678879 -0.000000 -0.000000
329
root 18.551063 35.484085 -21.323878 14.226251 9.596458 0.634397
Spine -28.080303 -9.982460 -4.251835
Head 16.831204 0.141873 11.449854
LeftShoulder 7.819628 -8.638232 -8.718221
LeftArm -107.062536 57.687343 -209.547016
LeftForeArm 46.729505 -0.000000 127.032255
LeftHand 16.421821 -0.000000 16.272317
LeftHandThumb1 -26.253704 0.000000 33.147579
RightShoulder -28.077012 21.591361 -41.981407
RightArm 153.110482 54.378315 122.094824
RightForeArm 15.933446 0.000000 154.756202
RightHand 6.737641 -0.000000 -21.790783
RightHandThumb1 -24.326973 -0.000000 -32.862282
LeftUpLeg -3.992027 1.034742 0.874081
LeftLeg -8.065843 -0.000000 0.000000
LeftFoot -19.061718 25.442634 -15.439641
LeftToeBase 23.711074 -0.000000 -0.000000
RightUpLeg -2.706332 -13.938722 -0.478094
RightLeg -4.542442 -0.000000 0.000000
RightFoot -23.998935 -24.751432 20.557076
RightToeBase 22.632140 -0.000000 -0.000000
330
root 18.551435 35.483925 -21.317308 14.203733 9.505417 0.642446
Spine -27.982749 -9.841071 -4.332356
Head 16.779713 0.020817 11.333017
LeftShoulder 7.897179 -8.302317 -8.827281
LeftArm -106.529335 57.180186 -209.256956
LeftForeArm 47.558078 0.000000 126.550609
LeftHand 16.866310 0.000000 17.994241
LeftHandThumb1 -26.253704 0.000000 33.147579
RightShoulder -28.385233 21.432133 -42.115953
RightArm 153.351841 54.242210 122.464312
RightForeArm 15.897673 -0.000000 154.795524
RightHand 6.686468 -0.000000 -21.894697
RightHandThumb1 -24.326973 -0.000000 -32.862282
LeftUpLeg -3.948297 1.068720 0.855447
LeftLeg -8.057302 -0.000000 0.000000
LeftFoot -19.085615 25.471759 -15.472319
LeftToeBase 23.677515 -0.000000 -0.000000
RightUpLeg -2.686779 -13.892910 -0.500148
RightLeg -4.548004 -0.000000 0.000000
RightFoot -24.020808 -24.781520 20.560835
RightToeBase 22.713075 -0.000000 -0.000000
331
root 18.549669 35.483439 -21.310907 14.211164 9.475120 0.670120
Spine -27.920503 -9.785617 -4.412249
Head 16.765731 -0.063840 11.225356
LeftShoulder 7.837735 -7.807109 -8.742360
LeftArm -106.493687 56.993216 -209.357813
LeftForeArm 48.093183 -0.000000 126.065155
LeftHand 17.386765 -0.000000 19.401260
LeftHandThumb1 -26.253704 0.000000 33.147579
RightShoulder -28.646836 21.044483 -42.126131
RightArm 153.878789 53.938078 123.119957
RightForeArm 16.289730 -0.000000 154.789142
RightHand 6.956701 0.000000 -21.803873
RightHandThumb1 -24.326973 -0.000000 -32.862282
LeftUpLeg -3.951386 1.023850 0.838954
LeftLeg -8.025575 -0.000000 0.000000
LeftFoot -19.112738 25.502310 -15.507186
LeftToeBase 23.627693 -0.000000 -0.000000
RightUpLeg -2.687789 -13.922927 -0.524183
RightLeg -4.543215 -0.000000 0.000000
RightFoot -24.016074 -24.755604 20.533688
RightToeBase 22.682878 -0.000000 -0.000000
332
root 18.556654 35.483123 -21.300820 14.182167 9.315941 0.653407
Spine -27.879428 -9.703598 -4.403532
Head 16.833796 0.063025 11.189857
LeftShoulder 7.762592 -7.218645 -8.691630
LeftArm -106.267224 56.764306 -209.203638
LeftForeArm 49.019327 -0.000000 125.504555
LeftHand 17.900902 -0.000000 20.869354
LeftHandThumb1 -26.253704 0.000000 33.147579
RightShoulder -28.758833 20.831878 -42.123889
RightArm 154.214855 53.764881 123.568469
RightForeArm 16.756369 -0.000000 154.879167
RightHand 7.129085 0.000000 -21.923271
RightHandThumb1 -24.326973 -0.000000 -32.862282
LeftUpLeg -3.875096 1.135402 0.815880
LeftLeg -8.044275 -0.000000 0.000000
LeftFoot -19.135694 25.527386 -15.530901
LeftToeBase 23.640511 -0.000000 -0.000000
RightUpLeg -2.676542 -13.802647 -0.558897
RightLeg -4.519892 -0.000000 0.000000
RightFoot -24.010019 -24.720211 20.535657
RightToeBase 22.693620 -0.000000 -0.000000
333
root 18.560364 35.482367 -21.291471 14.105977 9.208364 0.646635
Spine -27.781134 -9.668903 -4.408837
Head 16.956587 0.109783 11.140264
LeftShoulder 7.675503 -6.520870 -8.612570
LeftArm -106.132465 56.597840 -209.148857
LeftForeArm 50.244724 0.000000 124.844293
LeftHand 18.496091 0.000000 22.480980
LeftHandThumb1 -26.253704 0.000000 33.147579
RightShoulder -28.875053 20.913883 -42.198916
RightArm 154.063039 53.905675 123.425455
RightForeArm 17.154900 0.000000 155.009727
RightHand 7.049612 -0.000000 -22.470592
RightHandThumb1 -24.326973 -0.000000 -32.862282
LeftUpLeg -3.772248 1.185998 0.802972
LeftLeg -8.035303 -0.000000 0.000000
LeftFoot -19.178820 25.559796 -15.540378
LeftToeBase 23.632457 -0.000000 -0.000000
RightUpLeg -2.610809 -13.743937 -0.596092
RightLeg -4.495691 -0.000000 0.000000
RightFoot -24.009004 -24.676961 20.537889
RightToeBase 22.691594 -0.000000 -0.000000
334
root 18.561440 35.482313 -21.281147 14.039860 9.110462 0.662361
Spine -27.649310 -9.520873 -4.509673
Head 16.971895 -0.036310 11.049266
LeftShoulder 7.720491 -5.866567 -8.542554
LeftArm -105.810568 56.299319 -208.854013
LeftForeArm 51.539142 0.000000 124.078800
LeftHand 19.202233 -0.000000 24.299611
LeftHandThumb1 -26.253704 0.000000 33.147579
RightShoulder -29.191691 20.606138 -42.254050
RightArm 154.175097 53.764491 123.650684
RightForeArm 17.811111 -0.000000 155.162837
RightHand 7.510533 -0.000000 -22.468300
RightHandThumb1 -24.326973 -0.000000 -32.862282
LeftUpLeg -3.679683 1.237541 0.774304
LeftLeg -8.021333 -0.000000 0.000000
LeftFoot -19.217868 25.566116 -15.610494
LeftToeBase 23.626691 -0.000000 -0.000000
RightUpLeg -2.546807 -13.716530 -0.643467
RightLeg -4.483954 -0.000000 0.000000
RightFoot -24.004270 -24.657262 20.486073
RightToeBase 22.731451 -0.000000 -0.000000
335
root 18.561810 35.481003 -21.269196 13.991052 9.001289 0.684274
Spine -27.563455 -9.290705 -4.643536
Head 17.025329 -0.218596 10.938907
LeftShoulder 7.826571 -5.090505 -8.449424
LeftArm -105.776572 55.953321 -208.915217
LeftForeArm 53.459891 -0.000000 123.292269
LeftHand 19.858983 -0.000000 26.381028
LeftHandThumb1 -26.253704 0.000000 33.147579
RightShoulder -29.563962 20.140161 -42.300514
RightArm 154.287475 53.412732 123.902834
RightForeArm 18.129957 -0.000000 155.430962
RightHand 7.845808 -0.000000 -22.333633
RightHandThumb1 -24.326973 -0.000000 -32.862282
LeftUpLeg -3.595003 1.287902 0.740771
LeftLeg -8.013442 -0.000000 0.000000
LeftFoot -19.243800 25.567611 -15.664449
LeftToeBase 23.566764 -0.000000 -0.000000
RightUpLeg -2.497385 -13.676031 -0.695042
RightLeg -4.469628 -0.000000 0.000000
RightFoot -24.009980 -24.628291 20.431002
RightToeBase 22.797407 -0.000000 -0.000000
336
root 18.561922 35.482051 -21.259810 13.897974 8.893351 0.685189
Spine -27.434077 -9.340807 -4.708192
Head 17.153409 -0.149414 11.107935
LeftShoulder 7.680223 -4.347880 -8.322874
LeftArm -105.379965 55.721950 -208.643416
LeftForeArm 54.379270 -0.000000 122.398632
LeftHand 20.441357 0.000000 28.586132
LeftHandThumb1 -26.253704 0.000000 33.147579
RightShoulder -29.599104 19.776758 -41.974427
RightArm 154.827675 52.852242 124.461131
RightForeArm 18.691545 -0.000000 155.718603
RightHand 8.040316 -0.000000 -22.252755
RightHandThumb1 -24.326973 -0.000000 -32.862282
LeftUpLeg -3.483390 1.333205 0.727887
LeftLeg -7.986862 -0.000000 0.000000
LeftFoot -19.291604 25.598240 -15.716780
LeftToeBase 23.604393 -0.000000 -0.000000
RightUpLeg -2.420492 -13.617484 -0.734300
RightLeg -4.439309 -0.000000 0.000000
RightFoot -24.013086 -24.651272 20.416339
RightToeBase 22.802376 -0.000000 -0.000000
337
root 18.610939 35.487148 -21.272094 13.277245 9.057585 0.100341
Spine -27.216580 -14.810014 -1.679294
Head 18.620890 5.334688 12.776303
LeftShoulder 2.029633 -4.239492 -8.035034
LeftArm -104.067512 56.348236 -207.608340
LeftForeArm 55.065018 -0.000000 120.743679
LeftHand 21.153229 -0.000000 30.976622
LeftHandThumb1 -26.253704 0.000000 33.147579
RightShoulder -24.130790 23.983806 -38.872757
RightArm 155.983378 52.622434 125.139551
RightForeArm 19.540080 -0.000000 156.035584
RightHand 8.583684 0.000000 -22.982271
RightHandThumb1 -24.326973 -0.000000 -32.862282
LeftUpLeg -3.020358 1.213621 1.254402
LeftLeg -7.905286 -0.000000 0.000000
LeftFoot -19.483401 25.878333 -15.001758
LeftToeBase 23.902842 -0.000000 -0.000000
RightUpLeg -1.922271 -13.668753 -0.346004
RightLeg -4.343452 -0.000000 0.000000
RightFoot -23.866234 -24.349829 21.236319
RightToeBase 22.550886 -0.000000 -0.000000
338
root 18.610834 35.485086 -21.262070 13.223170 8.934588 0.105691
Spine -27.092953 -14.522562 -1.831389
Head 18.609841 5.080904 12.672924
LeftShoulder 2.149893 -3.637979 -7.876637
LeftArm -103.852884 55.990601 -207.380151
LeftForeArm 56.569276 -0.000000 120.159437
LeftHand 21.454899 -0.000000 32.605526
LeftHandThumb1 -26.253704 0.000000 33.147579
RightShoulder -24.558582 23.932880 -39.143287
RightArm 155.828908 52.219416 125.314065
RightForeArm 19.844977 -0.000000 156.223898
RightHand 8.772654 -0.000000 -22.856958
RightHandThumb1 -24.326973 -0.000000 -32.862282
LeftUpLeg -2.932059 1.291691 1.231263
LeftLeg -7.901180 -0.000000 0.000000
LeftFoot -19.540868 25.879967 -15.063110
LeftToeBase 23.905194 -0.000000 -0.000000
RightUpLeg -1.887532 -13.604852 -0.383362
RightLeg -4.305419 -0.000000 0.000000
RightFoot -23.886375 -24.319351 21.180697
RightToeBase 22.634103 -0.000000 -0.000000
339
root 18.616969 35.482929 -21.256311 12.973326 8.860334 0.035981
Spine -26.833443 -14.815763 -1.732245
Head 18.883938 5.204500 12.772882
LeftShoulder 1.816206 -2.974540 -7.798022
LeftArm -103.319371 55.932029 -206.956394
LeftForeArm 57.615541 -0.000000 119.366308
LeftHand 21.994787 -0.000000 34.636925
LeftHandThumb1 -26.253704 0.000000 33.147579
RightShoulder -24.028172 23.934574 -38.553845
RightArm 156.611753 51.615162 125.896160
RightForeArm 20.077420 -0.000000 156.205616
RightHand 8.960814 0.000000 -22.769058
RightHandThumb1 -24.326973 -0.000000 -32.862282
LeftUpLeg -2.679261 1.335774 1.281622
LeftLeg -7.882198 -0.000000 0.000000
LeftFoot -19.602252 25.932275 -14.986098
LeftToeBase 23.893860 -0.000000 -0.000000
RightUpLeg -1.662842 -13.551743 -0.396767
RightLeg -4.264116 -0.000000 0.000000
RightFoot -23.881501 -24.323239 21.225367
RightToeBase 22.554715 -0.000000 -0.000000
